<mxfile host="app.diagrams.net" agent="Mozilla/5.0 (Windows NT 10.0; Win64; x64) AppleWebKit/537.36 (KHTML, like Gecko) Chrome/131.0.0.0 Safari/537.36 Edg/131.0.0.0" version="24.8.6">
  <diagram name="Página-1" id="3q0ZnVv1Na_AxLHzEzJa">
    <mxGraphModel grid="0" page="0" gridSize="10" guides="1" tooltips="1" connect="1" arrows="1" fold="1" pageScale="1" pageWidth="827" pageHeight="1169" math="0" shadow="0">
      <root>
        <mxCell id="0" />
        <mxCell id="1" parent="0" />
        <mxCell id="JCH5yIscqvFx1T045Cop-29" value="Usuario" style="swimlane;fontStyle=1;align=center;verticalAlign=top;childLayout=stackLayout;horizontal=1;startSize=26;horizontalStack=0;resizeParent=1;resizeParentMax=0;resizeLast=0;collapsible=1;marginBottom=0;whiteSpace=wrap;html=1;" vertex="1" parent="1">
          <mxGeometry x="-360" y="11" width="160" height="234" as="geometry" />
        </mxCell>
        <mxCell id="JCH5yIscqvFx1T045Cop-30" value="+ Nome: string" style="text;strokeColor=none;fillColor=none;align=left;verticalAlign=top;spacingLeft=4;spacingRight=4;overflow=hidden;rotatable=0;points=[[0,0.5],[1,0.5]];portConstraint=eastwest;whiteSpace=wrap;html=1;" vertex="1" parent="JCH5yIscqvFx1T045Cop-29">
          <mxGeometry y="26" width="160" height="26" as="geometry" />
        </mxCell>
        <mxCell id="JCH5yIscqvFx1T045Cop-33" value="+ E-mail: e-mail" style="text;strokeColor=none;fillColor=none;align=left;verticalAlign=top;spacingLeft=4;spacingRight=4;overflow=hidden;rotatable=0;points=[[0,0.5],[1,0.5]];portConstraint=eastwest;whiteSpace=wrap;html=1;" vertex="1" parent="JCH5yIscqvFx1T045Cop-29">
          <mxGeometry y="52" width="160" height="26" as="geometry" />
        </mxCell>
        <mxCell id="JCH5yIscqvFx1T045Cop-32" value="+ Senha: senha" style="text;strokeColor=none;fillColor=none;align=left;verticalAlign=top;spacingLeft=4;spacingRight=4;overflow=hidden;rotatable=0;points=[[0,0.5],[1,0.5]];portConstraint=eastwest;whiteSpace=wrap;html=1;" vertex="1" parent="JCH5yIscqvFx1T045Cop-29">
          <mxGeometry y="78" width="160" height="26" as="geometry" />
        </mxCell>
        <mxCell id="JCH5yIscqvFx1T045Cop-34" value="+ DataNascimento: string" style="text;strokeColor=none;fillColor=none;align=left;verticalAlign=top;spacingLeft=4;spacingRight=4;overflow=hidden;rotatable=0;points=[[0,0.5],[1,0.5]];portConstraint=eastwest;whiteSpace=wrap;html=1;" vertex="1" parent="JCH5yIscqvFx1T045Cop-29">
          <mxGeometry y="104" width="160" height="26" as="geometry" />
        </mxCell>
        <mxCell id="JCH5yIscqvFx1T045Cop-35" value="+ Celular: string" style="text;strokeColor=none;fillColor=none;align=left;verticalAlign=top;spacingLeft=4;spacingRight=4;overflow=hidden;rotatable=0;points=[[0,0.5],[1,0.5]];portConstraint=eastwest;whiteSpace=wrap;html=1;" vertex="1" parent="JCH5yIscqvFx1T045Cop-29">
          <mxGeometry y="130" width="160" height="26" as="geometry" />
        </mxCell>
        <mxCell id="JCH5yIscqvFx1T045Cop-36" value="+ Estado: string" style="text;strokeColor=none;fillColor=none;align=left;verticalAlign=top;spacingLeft=4;spacingRight=4;overflow=hidden;rotatable=0;points=[[0,0.5],[1,0.5]];portConstraint=eastwest;whiteSpace=wrap;html=1;" vertex="1" parent="JCH5yIscqvFx1T045Cop-29">
          <mxGeometry y="156" width="160" height="26" as="geometry" />
        </mxCell>
        <mxCell id="JCH5yIscqvFx1T045Cop-37" value="+ Cidade: string" style="text;strokeColor=none;fillColor=none;align=left;verticalAlign=top;spacingLeft=4;spacingRight=4;overflow=hidden;rotatable=0;points=[[0,0.5],[1,0.5]];portConstraint=eastwest;whiteSpace=wrap;html=1;" vertex="1" parent="JCH5yIscqvFx1T045Cop-29">
          <mxGeometry y="182" width="160" height="26" as="geometry" />
        </mxCell>
        <mxCell id="JCH5yIscqvFx1T045Cop-38" value="+ Formacao: string" style="text;strokeColor=none;fillColor=none;align=left;verticalAlign=top;spacingLeft=4;spacingRight=4;overflow=hidden;rotatable=0;points=[[0,0.5],[1,0.5]];portConstraint=eastwest;whiteSpace=wrap;html=1;" vertex="1" parent="JCH5yIscqvFx1T045Cop-29">
          <mxGeometry y="208" width="160" height="26" as="geometry" />
        </mxCell>
        <mxCell id="JCH5yIscqvFx1T045Cop-39" value="Neurodivergencia" style="swimlane;fontStyle=1;align=center;verticalAlign=top;childLayout=stackLayout;horizontal=1;startSize=26;horizontalStack=0;resizeParent=1;resizeParentMax=0;resizeLast=0;collapsible=1;marginBottom=0;whiteSpace=wrap;html=1;" vertex="1" parent="1">
          <mxGeometry x="-87" y="1" width="211" height="248" as="geometry" />
        </mxCell>
        <mxCell id="JCH5yIscqvFx1T045Cop-40" value="+ DesafioDeAprendizado: string" style="text;strokeColor=none;fillColor=none;align=left;verticalAlign=top;spacingLeft=4;spacingRight=4;overflow=hidden;rotatable=0;points=[[0,0.5],[1,0.5]];portConstraint=eastwest;whiteSpace=wrap;html=1;" vertex="1" parent="JCH5yIscqvFx1T045Cop-39">
          <mxGeometry y="26" width="211" height="29" as="geometry" />
        </mxCell>
        <mxCell id="JCH5yIscqvFx1T045Cop-49" value="+ AtividadesAjudamConcentar: string" style="text;strokeColor=none;fillColor=none;align=left;verticalAlign=top;spacingLeft=4;spacingRight=4;overflow=hidden;rotatable=0;points=[[0,0.5],[1,0.5]];portConstraint=eastwest;whiteSpace=wrap;html=1;" vertex="1" parent="JCH5yIscqvFx1T045Cop-39">
          <mxGeometry y="55" width="211" height="29" as="geometry" />
        </mxCell>
        <mxCell id="JCH5yIscqvFx1T045Cop-50" value="+ InstrucaoDetalhadaOuPraticaDireta: bool" style="text;strokeColor=none;fillColor=none;align=left;verticalAlign=top;spacingLeft=4;spacingRight=4;overflow=hidden;rotatable=0;points=[[0,0.5],[1,0.5]];portConstraint=eastwest;whiteSpace=wrap;html=1;" vertex="1" parent="JCH5yIscqvFx1T045Cop-39">
          <mxGeometry y="84" width="211" height="55" as="geometry" />
        </mxCell>
        <mxCell id="JCH5yIscqvFx1T045Cop-51" value="+ PossuiLaudoNeuroDivergente: bool" style="text;strokeColor=none;fillColor=none;align=left;verticalAlign=top;spacingLeft=4;spacingRight=4;overflow=hidden;rotatable=0;points=[[0,0.5],[1,0.5]];portConstraint=eastwest;whiteSpace=wrap;html=1;" vertex="1" parent="JCH5yIscqvFx1T045Cop-39">
          <mxGeometry y="139" width="211" height="25" as="geometry" />
        </mxCell>
        <mxCell id="JCH5yIscqvFx1T045Cop-52" value="+ JaUsouFerramentasDeApoio: bool" style="text;strokeColor=none;fillColor=none;align=left;verticalAlign=top;spacingLeft=4;spacingRight=4;overflow=hidden;rotatable=0;points=[[0,0.5],[1,0.5]];portConstraint=eastwest;whiteSpace=wrap;html=1;" vertex="1" parent="JCH5yIscqvFx1T045Cop-39">
          <mxGeometry y="164" width="211" height="25" as="geometry" />
        </mxCell>
        <mxCell id="JCH5yIscqvFx1T045Cop-53" value="+ FerramentasUsadasUteis: bool" style="text;strokeColor=none;fillColor=none;align=left;verticalAlign=top;spacingLeft=4;spacingRight=4;overflow=hidden;rotatable=0;points=[[0,0.5],[1,0.5]];portConstraint=eastwest;whiteSpace=wrap;html=1;" vertex="1" parent="JCH5yIscqvFx1T045Cop-39">
          <mxGeometry y="189" width="211" height="25" as="geometry" />
        </mxCell>
        <mxCell id="JCH5yIscqvFx1T045Cop-41" value="" style="line;strokeWidth=1;fillColor=none;align=left;verticalAlign=middle;spacingTop=-1;spacingLeft=3;spacingRight=3;rotatable=0;labelPosition=right;points=[];portConstraint=eastwest;strokeColor=inherit;" vertex="1" parent="JCH5yIscqvFx1T045Cop-39">
          <mxGeometry y="214" width="211" height="8" as="geometry" />
        </mxCell>
        <mxCell id="JCH5yIscqvFx1T045Cop-47" value="+ method(type): type" style="text;strokeColor=none;fillColor=none;align=left;verticalAlign=top;spacingLeft=4;spacingRight=4;overflow=hidden;rotatable=0;points=[[0,0.5],[1,0.5]];portConstraint=eastwest;whiteSpace=wrap;html=1;" vertex="1" parent="JCH5yIscqvFx1T045Cop-39">
          <mxGeometry y="222" width="211" height="26" as="geometry" />
        </mxCell>
        <mxCell id="JCH5yIscqvFx1T045Cop-54" value="Login" style="swimlane;fontStyle=1;align=center;verticalAlign=top;childLayout=stackLayout;horizontal=1;startSize=26;horizontalStack=0;resizeParent=1;resizeParentMax=0;resizeLast=0;collapsible=1;marginBottom=0;whiteSpace=wrap;html=1;" vertex="1" parent="1">
          <mxGeometry x="267" y="43" width="160" height="78" as="geometry" />
        </mxCell>
        <mxCell id="JCH5yIscqvFx1T045Cop-55" value="+ e-mail: string" style="text;strokeColor=none;fillColor=none;align=left;verticalAlign=top;spacingLeft=4;spacingRight=4;overflow=hidden;rotatable=0;points=[[0,0.5],[1,0.5]];portConstraint=eastwest;whiteSpace=wrap;html=1;" vertex="1" parent="JCH5yIscqvFx1T045Cop-54">
          <mxGeometry y="26" width="160" height="26" as="geometry" />
        </mxCell>
        <mxCell id="JCH5yIscqvFx1T045Cop-58" value="+ senha: string" style="text;strokeColor=none;fillColor=none;align=left;verticalAlign=top;spacingLeft=4;spacingRight=4;overflow=hidden;rotatable=0;points=[[0,0.5],[1,0.5]];portConstraint=eastwest;whiteSpace=wrap;html=1;" vertex="1" parent="JCH5yIscqvFx1T045Cop-54">
          <mxGeometry y="52" width="160" height="26" as="geometry" />
        </mxCell>
        <mxCell id="oIrq-mUzyaSlkDPS59VN-2" value="Coloquei o usuário antes e a neurodivergencia pois ambos precisa existir antes do login. (Isabele)" style="text;strokeColor=none;fillColor=none;html=1;align=center;verticalAlign=middle;whiteSpace=wrap;rounded=0;fontSize=16;" vertex="1" parent="1">
          <mxGeometry x="-388" y="-128" width="227" height="64" as="geometry" />
        </mxCell>
        <mxCell id="oIrq-mUzyaSlkDPS59VN-3" value="Plano de estudo" style="swimlane;fontStyle=1;align=center;verticalAlign=top;childLayout=stackLayout;horizontal=1;startSize=26;horizontalStack=0;resizeParent=1;resizeParentMax=0;resizeLast=0;collapsible=1;marginBottom=0;whiteSpace=wrap;html=1;" vertex="1" parent="1">
          <mxGeometry x="496" y="-38" width="160" height="53" as="geometry" />
        </mxCell>
        <mxCell id="oIrq-mUzyaSlkDPS59VN-5" value="+ Disciplinas:&amp;nbsp; string&lt;div&gt;&lt;br&gt;&lt;/div&gt;" style="text;strokeColor=none;fillColor=none;align=left;verticalAlign=top;spacingLeft=4;spacingRight=4;overflow=hidden;rotatable=0;points=[[0,0.5],[1,0.5]];portConstraint=eastwest;whiteSpace=wrap;html=1;" vertex="1" parent="oIrq-mUzyaSlkDPS59VN-3">
          <mxGeometry y="26" width="160" height="27" as="geometry" />
        </mxCell>
        <mxCell id="oIrq-mUzyaSlkDPS59VN-12" value="Disciplinas" style="swimlane;fontStyle=1;align=center;verticalAlign=top;childLayout=stackLayout;horizontal=1;startSize=26;horizontalStack=0;resizeParent=1;resizeParentMax=0;resizeLast=0;collapsible=1;marginBottom=0;whiteSpace=wrap;html=1;" vertex="1" parent="1">
          <mxGeometry x="753" y="-148" width="218" height="138" as="geometry" />
        </mxCell>
        <mxCell id="oIrq-mUzyaSlkDPS59VN-13" value="+ MatermaticaEEstatistica:&amp;nbsp; string&lt;div&gt;&lt;br&gt;&lt;/div&gt;" style="text;strokeColor=none;fillColor=none;align=left;verticalAlign=top;spacingLeft=4;spacingRight=4;overflow=hidden;rotatable=0;points=[[0,0.5],[1,0.5]];portConstraint=eastwest;whiteSpace=wrap;html=1;" vertex="1" parent="oIrq-mUzyaSlkDPS59VN-12">
          <mxGeometry y="26" width="218" height="28" as="geometry" />
        </mxCell>
        <mxCell id="oIrq-mUzyaSlkDPS59VN-14" value="+ Portugues:&amp;nbsp; string&lt;div&gt;&lt;br&gt;&lt;/div&gt;" style="text;strokeColor=none;fillColor=none;align=left;verticalAlign=top;spacingLeft=4;spacingRight=4;overflow=hidden;rotatable=0;points=[[0,0.5],[1,0.5]];portConstraint=eastwest;whiteSpace=wrap;html=1;" vertex="1" parent="oIrq-mUzyaSlkDPS59VN-12">
          <mxGeometry y="54" width="218" height="28" as="geometry" />
        </mxCell>
        <mxCell id="oIrq-mUzyaSlkDPS59VN-15" value="+ Historia:&amp;nbsp; string&lt;div&gt;&lt;br&gt;&lt;/div&gt;" style="text;strokeColor=none;fillColor=none;align=left;verticalAlign=top;spacingLeft=4;spacingRight=4;overflow=hidden;rotatable=0;points=[[0,0.5],[1,0.5]];portConstraint=eastwest;whiteSpace=wrap;html=1;" vertex="1" parent="oIrq-mUzyaSlkDPS59VN-12">
          <mxGeometry y="82" width="218" height="28" as="geometry" />
        </mxCell>
        <mxCell id="oIrq-mUzyaSlkDPS59VN-16" value="+ Redacao:&amp;nbsp; string&lt;div&gt;&lt;br&gt;&lt;/div&gt;" style="text;strokeColor=none;fillColor=none;align=left;verticalAlign=top;spacingLeft=4;spacingRight=4;overflow=hidden;rotatable=0;points=[[0,0.5],[1,0.5]];portConstraint=eastwest;whiteSpace=wrap;html=1;" vertex="1" parent="oIrq-mUzyaSlkDPS59VN-12">
          <mxGeometry y="110" width="218" height="28" as="geometry" />
        </mxCell>
        <mxCell id="oIrq-mUzyaSlkDPS59VN-18" value="dispatch" style="html=1;verticalAlign=bottom;startArrow=oval;startFill=1;endArrow=block;startSize=8;curved=0;rounded=0;fontSize=12;" edge="1" parent="1">
          <mxGeometry x="-0.5667" y="-51" width="60" relative="1" as="geometry">
            <mxPoint x="-200" y="132" as="sourcePoint" />
            <mxPoint x="-89" y="135" as="targetPoint" />
            <mxPoint as="offset" />
          </mxGeometry>
        </mxCell>
        <mxCell id="IZLQikxsHhEdwUvnmjWG-1" value="Classname" style="swimlane;fontStyle=1;align=center;verticalAlign=top;childLayout=stackLayout;horizontal=1;startSize=26;horizontalStack=0;resizeParent=1;resizeParentMax=0;resizeLast=0;collapsible=1;marginBottom=0;whiteSpace=wrap;html=1;" vertex="1" parent="1">
          <mxGeometry x="129" y="-200" width="160" height="86" as="geometry" />
        </mxCell>
        <mxCell id="IZLQikxsHhEdwUvnmjWG-2" value="+ field: type" style="text;strokeColor=none;fillColor=none;align=left;verticalAlign=top;spacingLeft=4;spacingRight=4;overflow=hidden;rotatable=0;points=[[0,0.5],[1,0.5]];portConstraint=eastwest;whiteSpace=wrap;html=1;" vertex="1" parent="IZLQikxsHhEdwUvnmjWG-1">
          <mxGeometry y="26" width="160" height="26" as="geometry" />
        </mxCell>
        <mxCell id="IZLQikxsHhEdwUvnmjWG-3" value="" style="line;strokeWidth=1;fillColor=none;align=left;verticalAlign=middle;spacingTop=-1;spacingLeft=3;spacingRight=3;rotatable=0;labelPosition=right;points=[];portConstraint=eastwest;strokeColor=inherit;" vertex="1" parent="IZLQikxsHhEdwUvnmjWG-1">
          <mxGeometry y="52" width="160" height="8" as="geometry" />
        </mxCell>
        <mxCell id="IZLQikxsHhEdwUvnmjWG-4" value="+ method(type): type" style="text;strokeColor=none;fillColor=none;align=left;verticalAlign=top;spacingLeft=4;spacingRight=4;overflow=hidden;rotatable=0;points=[[0,0.5],[1,0.5]];portConstraint=eastwest;whiteSpace=wrap;html=1;" vertex="1" parent="IZLQikxsHhEdwUvnmjWG-1">
          <mxGeometry y="60" width="160" height="26" as="geometry" />
        </mxCell>
      </root>
    </mxGraphModel>
  </diagram>
</mxfile>
